<svg xmlns="http://www.w3.org/2000/svg" viewBox="0 0 135.62 31.61"><defs><style>.cls-1{fill:#152943;}</style></defs><g id="Calque_2" data-name="Calque 2"><g id="Calque_1-2" data-name="Calque 1"><path class="cls-1" d="M40.93,8.59v2.13H36.69V24.53H34.08V10.72H29.81V8.59Z"/><path class="cls-1" d="M44.14,9.74a1.62,1.62,0,0,1-.48-1.19,1.64,1.64,0,0,1,.48-1.2,1.62,1.62,0,0,1,1.19-.48,1.59,1.59,0,0,1,1.17.48A1.65,1.65,0,0,1,47,8.55a1.63,1.63,0,0,1-.49,1.19,1.59,1.59,0,0,1-1.17.48A1.62,1.62,0,0,1,44.14,9.74Zm2.48,2.15V24.53H44V11.89Z"/><path class="cls-1" d="M68.46,12.31a4.47,4.47,0,0,1,1.85,1.83A6,6,0,0,1,71,17.08v7.45H68.4V17.47a3.66,3.66,0,0,0-.85-2.61,3,3,0,0,0-2.31-.9,3.07,3.07,0,0,0-2.33.9,3.67,3.67,0,0,0-.86,2.61v7.06H59.46V17.47a3.71,3.71,0,0,0-.85-2.61,3.44,3.44,0,0,0-4.64,0,3.62,3.62,0,0,0-.86,2.61v7.06H50.49V11.89h2.62v1.45a4.32,4.32,0,0,1,1.62-1.22,5.21,5.21,0,0,1,2.11-.43,5.62,5.62,0,0,1,2.71.64,4.38,4.38,0,0,1,1.83,1.86,4.32,4.32,0,0,1,1.79-1.83,5.29,5.29,0,0,1,2.62-.67A5.59,5.59,0,0,1,68.46,12.31Z"/><path class="cls-1" d="M86.24,19.19H76.58a3.48,3.48,0,0,0,3.6,3.34,3.08,3.08,0,0,0,3-1.76H86a5.74,5.74,0,0,1-2.08,2.85,6.09,6.09,0,0,1-3.73,1.11,6.49,6.49,0,0,1-3.24-.81,5.83,5.83,0,0,1-2.25-2.29,7,7,0,0,1-.81-3.43,7.15,7.15,0,0,1,.79-3.43,5.67,5.67,0,0,1,2.22-2.28,6.7,6.7,0,0,1,3.29-.8,6.42,6.42,0,0,1,3.19.78,5.53,5.53,0,0,1,2.18,2.19,6.58,6.58,0,0,1,.78,3.24A8.42,8.42,0,0,1,86.24,19.19ZM83.6,17.08a3,3,0,0,0-1-2.32,3.7,3.7,0,0,0-2.5-.87,3.4,3.4,0,0,0-2.32.86,3.58,3.58,0,0,0-1.14,2.33Z"/><path class="cls-1" d="M103,8.43v16.1H99.05V17.9H93v6.63H89V8.43H93v6.31h6.09V8.43Z"/><path class="cls-1" d="M118.86,11.73v12.8h-3.92V22.79a4.23,4.23,0,0,1-1.61,1.36,5.3,5.3,0,0,1-4.85-.14,4.4,4.4,0,0,1-1.75-1.89,6.5,6.5,0,0,1-.61-2.91V11.73H110v7a2.84,2.84,0,0,0,.67,2,2.34,2.34,0,0,0,1.79.71,2.39,2.39,0,0,0,1.81-.71,2.84,2.84,0,0,0,.66-2V11.73Z"/><path class="cls-1" d="M127.62,12.1a4.92,4.92,0,0,1,2.36-.55,5.35,5.35,0,0,1,2.87.8,5.57,5.57,0,0,1,2,2.3,7.57,7.57,0,0,1,.74,3.46,7.67,7.67,0,0,1-.74,3.47,5.69,5.69,0,0,1-2,2.32,5.27,5.27,0,0,1-2.87.81,4.92,4.92,0,0,1-2.36-.54A4.13,4.13,0,0,1,126,22.74v1.79h-3.92v-17H126v6A4,4,0,0,1,127.62,12.1Zm3.2,3.7a2.71,2.71,0,0,0-2-.83,2.65,2.65,0,0,0-2,.84,3.23,3.23,0,0,0-.81,2.32,3.23,3.23,0,0,0,.81,2.32,2.75,2.75,0,0,0,4,0,3.19,3.19,0,0,0,.82-2.32A3.19,3.19,0,0,0,130.82,15.8Z"/><path class="cls-1" d="M13,2.52c-1.2-.29-1.47-.94-1.24-1.8S12.78.08,13.4,0a16.3,16.3,0,0,1,2.21,0c.63,0,1.46-.23,1.62.78.13.79,0,1.47-1.08,1.73,4.94,1,8.7,3.48,11.09,7.81a14.19,14.19,0,0,1,1.38,9.73A14.54,14.54,0,0,1,13.13,31.57a14.81,14.81,0,0,1-13-12.24C-.75,12.51,2.73,4.76,13,2.52Zm14.29,14.6c0-6.94-6-13-12.85-12.73C6.84,4.66,1.77,10.13,1.72,17.25A12.82,12.82,0,0,0,14.44,29.93,13,13,0,0,0,27.24,17.12Z"/><path class="cls-1" d="M17.22,18.86c-.1,1-.72,1.35-1.27.84-1.06-1-2.55-1.27-3.33-2.88S10.05,14,8.7,12.64c-.35-.36-.73-.71-1.07-1.09s-1.11-1.05-.4-1.71,1.15,0,1.59.44c1.34,1.3,2.64,2.63,4,3.94a6.7,6.7,0,0,0,2.15,1.58C16.27,16.36,16.17,18.12,17.22,18.86Z"/></g></g></svg>